#!OML:ASF F:\VICON\USERDATA\INSTALL\rory3\rory3.ASF
:FULLY-SPECIFIED
:DEGREES
609
root -1.41428 16.7572 26.8866 214.668 145.494 -170.686
lowerback -20.9194 -2.5954 5.94666
upperback -11.7724 -4.16301 3.29549
thorax -1.33812 -2.16559 -0.624513
lowerneck 5.4154 -17.5708 -13.486
upperneck 11.4223 -24.0625 1.87809
head 4.44929 -12.3471 1.59618
rclavicle -6.56486e-014 -1.74931e-014
rhumerus -50.2522 2.85263 -59.4634
rradius 14.7449
rwrist -14.3153
rhand 25.7258 7.91701
rfingers 7.12502
rthumb 49.8267 -13.3962
lclavicle -6.56486e-014 -1.74931e-014
lhumerus -237.328 -189.682 234.388
lradius 21.2462
lwrist -5.93056
lhand 25.5097 28.2019
lfingers 7.12502
lthumb 49.6287 49.6174
rfemur 120.699 -194.468 -168.341
rtibia 43.8756
rfoot -64.5722 -42.2392
rtoes 41.5186
lfemur -17.0877 1.20145 -26.6951
ltibia 36.9374
lfoot 10.6956 38.1992
ltoes 11.7523
610
root -1.41418 16.7532 26.8879 214.7 145.512 -170.703
lowerback -20.9503 -2.65415 5.94596
upperback -11.8499 -4.23563 3.31738
thorax -1.41053 -2.20376 -0.611863
lowerneck 5.94236 -17.8765 -13.8253
upperneck 11.0784 -24.605 2.46717
head 4.41543 -12.6088 1.80655
rclavicle -1.44119e-014 -1.90833e-014
rhumerus -50.3147 2.61234 -59.2408
rradius 14.4576
rwrist -13.9085
rhand 25.4974 8.24357
rfingers 7.12502
rthumb 49.6174 -13.1778
lclavicle -1.44119e-014 -1.90833e-014
lhumerus -237.432 -190.095 233.672
lradius 20.8683
lwrist -6.61057
lhand 25.2689 27.9182
lfingers 7.12502
lthumb 49.4079 49.4464
rfemur 120.707 -194.326 -168.185
rtibia 43.8868
rfoot -64.3238 -42.3837
rtoes 41.6951
lfemur -17.1084 1.16261 -26.6748
ltibia 36.9324
lfoot 9.13823 38.6787
ltoes 14.7148
611
root -1.40759 16.747 26.8881 214.628 145.527 -170.788
lowerback -20.8878 -2.69586 6.10054
upperback -11.9382 -4.30513 3.32286
thorax -1.55734 -2.25128 -0.695888
lowerneck 6.20015 -18.2185 -13.8726
upperneck 10.9165 -25.1143 2.6224
head 4.3912 -12.8572 1.84069
rclavicle -1.31794e-013 -4.29375e-014
rhumerus -50.398 2.39651 -59.042
rradius 14.2875
rwrist -13.4371
rhand 25.5427 8.04611
rfingers 7.12502
rthumb 49.659 -13.3539
lclavicle -1.31794e-013 -4.29375e-014
lhumerus -237.643 -190.464 232.873
lradius 20.4675
lwrist -7.28464
lhand 25.2639 27.4307
lfingers 7.12502
lthumb 49.4034 48.9611
rfemur 120.756 -194.169 -168.026
rtibia 43.8802
rfoot -64.2169 -42.2561
rtoes 41.8856
lfemur -17.0834 1.34811 -26.6368
ltibia 36.9416
lfoot 10.2548 38.4046
ltoes 12.6714
612
root -1.39685 16.7467 26.8852 214.655 145.548 -170.759
lowerback -20.9891 -2.80455 6.13226
upperback -11.9421 -4.46186 3.40558
thorax -1.5158 -2.32833 -0.658951
lowerneck 5.9662 -18.5036 -14.1038
upperneck 11.1246 -25.4905 2.6999
head 4.56111 -13.0466 1.80972
rclavicle -1.78906e-014 -4.29375e-014
rhumerus -50.2827 2.13499 -58.6707
rradius 14.2424
rwrist -12.6451
rhand 25.516 7.96383
rfingers 7.12502
rthumb 49.6345 -13.4487
lclavicle -1.78906e-014 -4.29375e-014
lhumerus -237.874 -190.983 232.313
lradius 20.2413
lwrist -7.7997
lhand 25.1466 27.1848
lfingers 7.12502
lthumb 49.2957 48.7696
rfemur 120.754 -193.935 -167.969
rtibia 43.9241
rfoot -64.0489 -42.0581
rtoes 41.753
lfemur -17.0498 1.29899 -26.7107
ltibia 36.897
lfoot 10.4879 38.3602
ltoes 12.1629
613
root -1.38939 16.7454 26.8845 214.816 145.638 -170.701
lowerback -21.39 -2.9601 5.99148
upperback -11.7882 -4.68797 3.54925
thorax -1.13141 -2.41954 -0.501456
lowerneck 5.8203 -18.7046 -14.0988
upperneck 10.7856 -25.7658 2.99893
head 4.53663 -13.1651 1.86513
rclavicle -2.96189e-014 -3.81667e-014
rhumerus -49.7923 1.71833 -58.201
rradius 14.1704
rwrist -11.6682
rhand 25.6048 7.89785
rfingers 7.12502
rthumb 49.7158 -13.4728
lclavicle -2.96189e-014 -3.81667e-014
lhumerus -237.933 -191.531 232.069
lradius 20.3326
lwrist -7.95094
lhand 25.273 27.32
lfingers 7.12502
lthumb 49.4117 48.8462
rfemur 120.585 -193.729 -168.005
rtibia 43.9733
rfoot -63.6751 -42.0619
rtoes 41.6488
lfemur -17.1396 1.18815 -26.8461
ltibia 36.8359
lfoot 10.7193 38.3559
ltoes 11.4851
614
root -1.38478 16.7401 26.8837 215.121 145.931 -170.393
lowerback -21.6441 -3.04307 5.62492
upperback -11.7639 -4.75315 3.53113
thorax -0.946783 -2.43148 -0.347326
lowerneck 6.03305 -18.9109 -14.2018
upperneck 10.4249 -26.1075 3.42449
head 4.48801 -13.3224 1.99402
rclavicle 1.12164e-013 -2.38542e-014
rhumerus -49.5928 1.5188 -58.0255
rradius 14.0131
rwrist -11.1575
rhand 25.5413 7.90816
rfingers 7.12502
rthumb 49.6577 -13.4925
lclavicle 1.12164e-013 -2.38542e-014
lhumerus -237.989 -191.856 231.788
lradius 20.3929
lwrist -8.21477
lhand 25.4748 26.922
lfingers 7.12502
lthumb 49.5967 48.354
rfemur 120.372 -193.548 -168.34
rtibia 44.0282
rfoot -63.3067 -41.8971
rtoes 41.8074
lfemur -17.235 1.15479 -27.27
ltibia 36.7678
lfoot 11.5735 38.0823
ltoes 9.69984
615
root -1.37755 16.7378 26.8799 215.183 146.029 -170.304
lowerback -21.604 -3.07401 5.61254
upperback -11.8423 -4.78243 3.51648
thorax -1.05475 -2.4498 -0.355068
lowerneck 6.20794 -19.1498 -14.4908
upperneck 10.3475 -26.5 3.81338
head 4.55973 -13.5151 2.10169
rclavicle -2.25621e-014 -5.88403e-014
rhumerus -49.5682 0.948104 -57.4563
rradius 13.7594
rwrist -10.1591
rhand 25.7801 8.18656
rfingers 7.12502
rthumb 49.8764 -13.1008
lclavicle -2.25621e-014 -5.88403e-014
lhumerus -238.127 -192.056 231.409
lradius 20.3165
lwrist -8.45674
lhand 25.5615 26.3266
lfingers 7.12502
lthumb 49.6762 47.7177
rfemur 120.408 -193.378 -168.332
rtibia 44.0137
rfoot -63.1505 -41.5419
rtoes 42.2402
lfemur -17.202 1.06528 -27.3957
ltibia 36.78
lfoot 10.0448 38.3823
ltoes 12.4086
616
root -1.37325 16.7384 26.8778 214.986 145.955 -170.522
lowerback -21.4667 -3.05743 5.88908
upperback -11.8889 -4.7967 3.54025
thorax -1.20084 -2.47367 -0.473989
lowerneck 6.42697 -19.3915 -14.6584
upperneck 10.2363 -26.8942 4.17358
head 4.59721 -13.7063 2.1969
rclavicle 1.50579e-014 1.74931e-014
rhumerus -49.6454 0.697377 -57.3106
rradius 13.6305
rwrist -9.75983
rhand 25.6406 8.43131
rfingers 7.12502
rthumb 49.7486 -12.9224
lclavicle 1.50579e-014 1.74931e-014
lhumerus -238.173 -191.817 231.527
lradius 20.3803
lwrist -7.95791
lhand 25.2873 26.6861
lfingers 7.12502
lthumb 49.4248 48.2058
rfemur 120.597 -193.273 -167.96
rtibia 43.9461
rfoot -62.9783 -41.3338
rtoes 42.4168
lfemur -17.1423 0.996265 -27.1875
ltibia 36.8496
lfoot 10.2739 38.3573
ltoes 11.8713
617
root -1.36645 16.7428 26.8742 214.673 145.738 -171.018
lowerback -21.4048 -2.99336 6.4642
upperback -11.8859 -4.81043 3.63415
thorax -1.27971 -2.50677 -0.689228
lowerneck 6.51672 -19.6283 -14.6625
upperneck 10.157 -27.2448 4.38916
head 4.62074 -13.873 2.22962
rclavicle 1.64047e-013 5.56597e-014
rhumerus -49.6481 0.297301 -57.0771
rradius 13.52
rwrist -9.23974
rhand 25.3795 8.31796
rfingers 7.12502
rthumb 49.5094 -13.1586
lclavicle 1.64047e-013 5.56597e-014
lhumerus -238.184 -191.363 232.002
lradius 20.6981
lwrist -7.1262
lhand 25.0403 27.2636
lfingers 7.12502
lthumb 49.1982 48.8974
rfemur 120.774 -193.179 -167.337
rtibia 43.8466
rfoot -62.8967 -41.0467
rtoes 42.5005
lfemur -17.1825 1.09263 -26.6906
ltibia 36.9547
lfoot 11.5996 38.0032
ltoes 9.44531
618
root -1.35147 16.7494 26.8621 214.583 145.495 -171.279
lowerback -21.5738 -2.98613 6.93884
upperback -11.776 -4.90975 3.72195
thorax -1.12213 -2.57028 -0.890892
lowerneck 6.34127 -19.8354 -14.6405
upperneck 10.0348 -27.5248 4.67442
head 4.67094 -13.9964 2.25806
rclavicle -6.92268e-014 -2.38542e-014
rhumerus -49.367 -0.100237 -56.8707
rradius 13.3093
rwrist -8.67928
rhand 25.1747 7.95413
rfingers 7.12502
rthumb 49.3215 -13.6177
lclavicle -6.92268e-014 -2.38542e-014
lhumerus -238.098 -191.079 232.566
lradius 21.0989
lwrist -6.28766
lhand 24.9239 27.3494
lfingers 7.12502
lthumb 49.0913 49.0365
rfemur 120.858 -192.88 -166.932
rtibia 43.7834
rfoot -62.8441 -40.5204
rtoes 42.7874
lfemur -17.2787 1.25021 -26.3704
ltibia 37.027
lfoot 12.2838 37.67
ltoes 8.52097
619
root -1.34177 16.7505 26.8563 214.609 145.499 -171.252
lowerback -21.7016 -3.06179 6.97031
upperback -11.7385 -5.03027 3.77638
thorax -1.02298 -2.62737 -0.882775
lowerneck 6.52077 -19.9277 -14.6978
upperneck 9.69385 -27.697 5.03529
head 4.61068 -14.0738 2.37555
rclavicle -5.30258e-014 -5.08889e-014
rhumerus -49.1377 -0.44096 -56.5875
rradius 12.9079
rwrist -7.98063
rhand 25.1025 8.07037
rfingers 7.12502
rthumb 49.2553 -13.5348
lclavicle -5.30258e-014 -5.08889e-014
lhumerus -238.175 -190.777 233.071
lradius 21.546
lwrist -5.4225
lhand 24.7978 27.4671
lfingers 7.12502
lthumb 48.9754 49.2116
rfemur 120.901 -192.644 -166.86
rtibia 43.7789
rfoot -62.6459 -40.2244
rtoes 42.8988
lfemur -17.2951 1.57357 -26.3837
ltibia 37.0487
lfoot 12.2607 37.6146
ltoes 9.37257
